<svg width="200" height="150" viewBox="0 0 133 127" fill="none" xmlns="http://www.w3.org/2000/svg">
    <path d="M6.39671 58.2561C7.13474 58.2561 7.73303 57.6578 7.73303 56.9198C7.73303 56.1818 7.13474 55.5835 6.39671 55.5835C5.65868 55.5835 5.06039 56.1818 5.06039 56.9198C5.06039 57.6578 5.65868 58.2561 6.39671 58.2561Z" stroke="#24A793" stroke-width="0.45" />
    <path d="M9.01528 57.0559C11.7107 56.7784 15.94 57.1066 16.4399 59.1915C16.9398 61.2765 15.0309 62.039 14.014 62.1597C10.1425 62.775 5.00894 62.4854 5.00894 59.1915" stroke="#24A793" stroke-width="0.45" stroke-linecap="round" />
    <path d="M8.04141 60.209C8.21173 60.209 8.34979 60.071 8.34979 59.9007C8.34979 59.7304 8.21173 59.5923 8.04141 59.5923C7.8711 59.5923 7.73303 59.7304 7.73303 59.9007C7.73303 60.071 7.8711 60.209 8.04141 60.209Z" stroke="#24A793" stroke-width="0.45" />
    <path d="M11.0224 59.9007C11.0224 60.0504 10.8829 60.209 10.6627 60.209C10.4425 60.209 10.3029 60.0504 10.3029 59.9007C10.3029 59.7509 10.4425 59.5923 10.6627 59.5923C10.8829 59.5923 11.0224 59.7509 11.0224 59.9007Z" stroke="#24A793" stroke-width="0.45" />
    <path d="M13.2839 60.209C13.4542 60.209 13.5923 60.071 13.5923 59.9007C13.5923 59.7304 13.4542 59.5923 13.2839 59.5923C13.1136 59.5923 12.9755 59.7304 12.9755 59.9007C12.9755 60.071 13.1136 60.209 13.2839 60.209Z" stroke="#24A793" stroke-width="0.45" />
    <path d="M107.803 20.6336C108.484 20.6336 109.036 20.0813 109.036 19.4C109.036 18.7188 108.484 18.1665 107.803 18.1665C107.121 18.1665 106.569 18.7188 106.569 19.4C106.569 20.0813 107.121 20.6336 107.803 20.6336Z" stroke="#24A793" stroke-width="0.45" />
    <path d="M110.226 18.3203C111.13 18.3203 113.713 18.3203 114.928 18.3203C115.912 18.3203 116.386 18.538 116.386 20.0618C116.386 21.5424 116.374 23.4602 116.386 24.2342C116.394 24.7784 116.123 25.3807 115.219 25.4678C114.315 25.5548 110.688 25.5041 108.987 25.4678C108.355 25.4678 107.237 25.1096 107.237 23.6537V22.021" stroke="#24A793" stroke-width="0.45" stroke-linecap="round" />
    <path d="M109.602 20.8906L111.863 22.4325" stroke="#24A793" stroke-width="0.45" stroke-linecap="round" />
    <path d="M111.863 22.4323L115.975 18.6289" stroke="#24A793" stroke-width="0.45" stroke-linecap="round" />
    <path d="M112.905 21.5073L114.029 22.6381L115.152 23.7688" stroke="#24A793" stroke-width="0.45" stroke-linecap="round" />
    <path d="M108.779 23.7688L110.437 21.5073" stroke="#24A793" stroke-width="0.45" stroke-linecap="round" />
    <path d="M116.843 97.7267C116.501 98.0688 116.206 98.3638 116.004 98.5669C115.475 99.0965 114.919 98.7876 114.708 98.5669L111.333 95.3158C110.835 94.8526 110.414 94.3954 108.531 92.5992C108.339 92.4061 108.033 91.9133 108.353 91.4857C108.674 91.0582 110.473 88.8136 111.333 87.7448C111.594 87.3669 112.161 86.9174 112.884 87.5896C113.507 88.1686 115.642 90.1726 117.465 91.6964" stroke="#24A793" stroke-width="0.45" stroke-linecap="round" />
    <path d="M111.298 87.8604C111.404 89.8103 112.119 92.9494 115.821 94.1308" stroke="#24A793" stroke-width="0.45" stroke-linecap="round" />
    <path d="M120.683 94.2819C120.514 93.8507 119.211 93.3486 118.719 94.2819C118.212 95.2445 118.6 96.0555 118.93 96.2145C119.351 96.4175 119.97 96.5237 120.624 95.3551" stroke="#24A793" stroke-width="0.45" stroke-linecap="round" />
    <path d="M120.791 93.6819C120.753 93.9071 120.714 94.0018 120.683 94.282C120.643 94.647 120.618 95.0298 120.624 95.3552C120.636 95.9264 120.749 96.3205 121.07 96.1303C121.713 95.7487 122.061 95.4358 122.153 95.1168C122.308 94.5801 122.309 93.5525 121.441 92.8808C120.395 92.0697 119.214 92.0918 118.286 92.8808C117.365 93.6639 117.113 94.9175 117.163 95.5679C117.218 96.2794 117.749 97.8074 119.482 97.8312C121.214 97.8551 122.152 96.9212 122.296 96.484" stroke="#24A793" stroke-width="0.45" stroke-linecap="round" />
    <path d="M29.4738 81.4431C29.1043 80.0165 27.8771 77.3853 25.9257 78.2747C23.9742 79.1641 25.1125 80.7575 25.9257 81.4431C26.4729 81.8137 27.6493 82.2102 27.977 80.8316C28.3047 79.4531 26.9236 78.8861 26.5355 79.4977C26.3308 79.7385 26.0996 80.3425 26.8127 80.8316" stroke="#24A793" stroke-width="0.45" stroke-linecap="round" />
    <path d="M37.8599 10.9335C37.8533 10.8968 37.8918 10.8685 37.9249 10.8857L40.3594 12.1478C40.504 12.2228 40.6763 12.2218 40.82 12.1452L43.2399 10.8553C43.2728 10.8377 43.3116 10.8655 43.3055 10.9023L42.8574 13.6077C42.8308 13.7684 42.885 13.9319 43.0023 14.045L44.9769 15.9478C45.0037 15.9737 44.9892 16.0191 44.9524 16.0247L42.241 16.4346C42.0799 16.4589 41.9411 16.561 41.8698 16.7075L40.6703 19.1734C40.654 19.207 40.6063 19.2072 40.5896 19.1739L39.3619 16.7218C39.289 16.5762 39.149 16.4757 38.9877 16.4532L36.2717 16.0744C36.2348 16.0693 36.2198 16.024 36.2464 15.9978L38.199 14.0725C38.315 13.9581 38.3673 13.794 38.3389 13.6335L37.8599 10.9335Z" stroke="#24A793" stroke-width="0.45" />
    <path d="M69.9232 58.2471V66.9845" stroke="#13594E" stroke-width="0.45" stroke-linecap="round" />
    <path d="M76.502 59.2749V67.6012" stroke="#13594E" stroke-width="0.45" stroke-linecap="round" />
    <path d="M61.1146 97.1118C58.9422 97.3823 53.8567 98.3798 52.7428 100.408C52.4086 101.017 52.0209 102.498 53.1438 103.553C54.2668 104.608 56.3188 104.331 57.2043 104.06L62.3678 101.981" stroke="#13594E" stroke-width="0.45" stroke-linecap="round" />
    <path d="M90.7184 81.8037C86.665 81.9342 68.7623 90.6013 60.3176 94.9186C59.5985 99.6759 62.6331 103.092 64.2403 104.205C72.6577 101.761 89.9338 96.8086 91.699 96.5478C93.4643 96.2872 95.2131 95.0273 95.8668 94.4299C100.443 89.0863 97.0655 84.5462 94.8045 82.9442C93.1949 81.8037 91.8054 81.7687 90.7184 81.8037Z" fill="#13594E" />
    <path d="M52.7496 80.591C55.6216 80.7826 68.1501 85.6381 74.0863 88.183L60.5103 94.9669C54.4347 96.7487 50.7023 96.1617 49.5625 95.7776C42.9829 92.6077 45.5608 84.7874 48.1749 81.8905C49.8597 80.4565 51.7206 80.5224 52.7496 80.591Z" fill="#13594E" />
    <path d="M84.7138 98.0371C86.5088 98.8997 87.4793 100.03 87.9714 100.957C89.0259 103.37 87.1324 104.821 84.9705 104.139C83.7759 103.762 83.4942 103.509 82.8615 102.985C82.5404 102.718 81.0408 101.325 79.3288 99.6791" stroke="#13594E" stroke-width="0.45" stroke-linecap="round" />
    <path d="M50.2383 56.7169L51.6305 82.0158C51.6568 82.4929 52.0513 82.8664 52.5291 82.8664H91.2267C91.7237 82.8664 92.1266 82.4634 92.1266 81.9664V56.1271C92.1266 55.6253 91.7163 55.2204 91.2145 55.2271L51.1249 55.7676C50.6132 55.7745 50.2102 56.206 50.2383 56.7169Z" fill="#13594E" />
    <rect x="51.4203" y="83.2261" width="40.7063" height="1.95308" rx="0.9" fill="#13594E" />
    <path d="M76.6048 44.3699C80.1854 44.3185 88.0663 47.0425 91.2015 55.6257" stroke="#13594E" stroke-width="0.45" stroke-linecap="round" />
    <path d="M68.7411 44.3188C60.569 45.9122 56.6628 49.4071 53.579 56.1401" stroke="#13594E" stroke-width="0.45" stroke-linecap="round" />
    <path d="M96.0842 52.4482L98.0887 49.1074" stroke="#13594E" stroke-width="0.45" stroke-linecap="round" />
    <path d="M98.0887 53.3733L100.813 51.1118" stroke="#13594E" stroke-width="0.45" stroke-linecap="round" />
    <path d="M98.4998 54.9152C99.0309 55.1208 100.237 55.3161 100.813 54.4526" stroke="#13594E" stroke-width="0.45" stroke-linecap="round" />
    <path d="M45.9208 51.8223L42.837 48.6357" stroke="#13594E" stroke-width="0.45" stroke-linecap="round" />
    <path d="M49.0561 51.3087L47.2058 46.5288" stroke="#13594E" stroke-width="0.45" stroke-linecap="round" />
    <path d="M45.1499 53.6213L42.837 52.7476" stroke="#13594E" stroke-width="0.45" stroke-linecap="round" />
    <path d="M93.2574 61.3911C95.1591 64.3721 97.3177 67.9185 93.2574 74.5914" stroke="#13594E" stroke-width="0.45" stroke-linecap="round" />
    <path d="M76.6562 44.6271C77.1188 43.2908 76.6974 42.3915 76.2862 42.2202C73.8191 44.4817 70.0774 43.6422 68.6897 42.2716C68.1963 42.7239 68.4841 44.0617 68.6897 44.4729C71.3623 47.4334 75.1657 45.775 76.6562 44.6271Z" fill="#13594E" />
    <path d="M65.7086 52.8506L66.7064 51.3192C67.4108 50.238 68.7817 49.8064 69.9784 50.2889L72.4939 51.3033C73.5684 51.7365 74.7996 51.436 75.5536 50.5563L77.9925 47.7109" stroke="#13594E" stroke-width="0.45" stroke-linecap="round" />
    <path d="M49.6214 63.2842C48.8505 65.1002 47.9356 69.5032 50.4438 72.587" stroke="#13594E" stroke-width="0.45" stroke-linecap="round" />
    <path d="M83.7431 23.6164C82.6124 27.6767 82.047 28.0365 80.4023 29.8354C80.4023 28.0576 80.0969 25.0735 80.0969 23.831C74.7116 23.831 70.1667 21.6326 68.5675 20.5334C68.6248 24.2611 65.1301 26.6984 65.1301 26.6984C65.1301 26.6984 65.6314 28.2038 65.9178 31.5731C66.147 34.2685 65.4882 33.7476 65.1301 33.1502C64.0989 29.8239 62.4088 30.7128 61.6926 31.5731C52.9051 17.2946 66.419 14.5357 68.9971 14.7985C70.9449 13.1354 73.6614 11.8321 75.571 11.6409C82.4582 10.9515 85.5766 17.0327 83.7431 23.6164Z" fill="#13594E" />
    <path d="M65.2505 35.6919C66.1756 41.3399 72.3852 45.4012 76.8662 40.8259C81.3472 36.2507 80.4505 27.8758 79.9717 23.9678" stroke="#13594E" stroke-width="0.45" stroke-linecap="round" />
    <path d="M61.5911 31.2231C61.0257 32.6109 61.5562 35.6859 65.2506 35.6859" stroke="#13594E" stroke-width="0.45" stroke-linecap="round" />
    <path d="M63.2205 31.9854C63.1387 32.2823 63.2041 32.9859 64.1198 33.4245" stroke="#13594E" stroke-width="0.45" stroke-linecap="round" />
    <path d="M79.8472 34.9664C81.053 34.4637 81.9031 32.6021 81.576 29.6211" stroke="#13594E" stroke-width="0.45" stroke-linecap="round" />
    <path d="M73.0628 38.3587C74.245 38.667 74.1702 37.8184 75.0673 37.0737" stroke="#13594E" stroke-width="0.45" stroke-linecap="round" />
    <circle cx="76.5918" cy="31.1787" r="0.770953" fill="#13594E" />
    <circle cx="69.8074" cy="31.2812" r="0.770953" fill="#13594E" />
    <path d="M68.1287 29.5184C68.291 29.0408 68.991 28.1571 70.493 28.4437" stroke="#13594E" stroke-width="0.45" stroke-linecap="round" />
    <path d="M75.3243 28.5933C75.6825 28.283 76.6569 27.8486 77.6885 28.5933" stroke="#13594E" stroke-width="0.45" stroke-linecap="round" />
    <path d="M72.8374 30.752C72.7177 31.7669 72.6363 33.8253 73.2684 33.9386" stroke="#13594E" stroke-width="0.45" stroke-linecap="round" />
    <path d="M102.457 77.3754C116.18 81.1787 140.83 85.5475 129.646 72.5955C126.117 69.1176 120.909 65.0402 112.531 61.4424" stroke="#24A793" stroke-width="0.45" stroke-linecap="round" />
    <path d="M117.311 50.8023C125.843 45.3371 139.586 34.0469 126.306 32.6078C113.025 31.1686 100.898 36.1541 96.4954 38.8268" stroke="#24A793" stroke-width="0.45" stroke-linecap="round" />
    <path d="M84.2629 42.8158C89.9166 30.6347 99.0652 5.3886 90.4306 1.85249C79.6372 -2.56764 65.6573 10.1788 54.2472 40.6057" stroke="#24A793" stroke-width="0.45" stroke-linecap="round" />
    <path d="M41.6734 32.3225C29.0298 25.401 3.21826 14.755 1.12127 27.5426C-0.975727 40.3301 24.6439 50.9966 37.7158 54.7315" stroke="#24A793" stroke-width="0.45" stroke-linecap="round" />
    <path d="M41.0722 61.4424C22.6207 70.848 -0.498704 83.856 12.3073 90.6358C17.5497 93.4112 30.9644 91.7151 37.132 89.1967" stroke="#24A793" stroke-width="0.45" stroke-linecap="round" />
    <ellipse cx="71.2595" cy="123.016" rx="25.4415" ry="3.08381" fill="#24A793" />
</svg>