<svg width="200" height="150" viewBox="0 0 129 111" fill="none" xmlns="http://www.w3.org/2000/svg">
    <path d="M29.3434 69.5328L24.0603 48.855L92.7978 31.293L93.8055 35.2373" stroke="#13594E" stroke-width="0.75" />
    <path d="M31.8498 79.3423L35.872 95.085L37.3563 94.7058" stroke="#13594E" stroke-width="0.75" />
    <path d="M61.371 92.1003L64.2747 91.394" stroke="#13594E" stroke-width="0.75" stroke-linecap="round" />
    <path d="M68.905 90.2951L92.8806 84.5194" stroke="#13594E" stroke-width="0.75" stroke-linecap="round" />
    <path d="M59.6444 92.4922L38.0118 97.5745L33.1184 77.0316" stroke="#13594E" stroke-width="0.75" stroke-linecap="round" />
    <path d="M31.389 69.8119L26.94 51.1616L95.9492 34.6997L102.543 62.3419" stroke="#13594E" stroke-width="0.75" stroke-linecap="round" />
    <path d="M10.0522 42.7032C9.3638 42.8508 8.70679 43.0672 8.08553 43.3386L8.41907 44.8935C7.59104 45.2917 6.84811 45.8048 6.20018 46.421L4.86489 45.5573C4.38142 46.0517 3.96033 46.6004 3.58621 47.1788C3.21209 47.7573 2.88439 48.3663 2.63181 49.01L3.9671 49.8736C3.67086 50.7173 3.50759 51.6053 3.48409 52.5238L1.92914 52.8573C1.93647 53.5352 2.00855 54.2232 2.1562 54.9115C2.30386 55.5999 2.52028 56.2569 2.79163 56.8782L4.34657 56.5446C4.7447 57.3727 5.2578 58.1156 5.87399 58.7635L5.01037 60.0988C5.50473 60.5823 6.0534 61.0034 6.63184 61.3775C7.21029 61.7516 7.81936 62.0793 8.46305 62.3319L9.32667 60.9966C10.1703 61.2928 11.0583 61.4561 11.9768 61.4796L12.3103 63.0346C12.9882 63.0272 13.6762 62.9552 14.3646 62.8075C15.0529 62.6598 15.7099 62.4434 16.3312 62.1721L15.9977 60.6171C16.8257 60.219 17.5686 59.7059 18.2166 59.0897L19.5518 59.9533C20.0353 59.459 20.4564 58.9103 20.8305 58.3319C21.2046 57.7534 21.5323 57.1443 21.7849 56.5007L20.4496 55.637C20.7459 54.7934 20.9091 53.9054 20.9326 52.9869L22.4876 52.6534C22.4803 51.9755 22.4082 51.2875 22.2605 50.5991C22.1129 49.9108 21.8965 49.2538 21.6251 48.6325L20.0702 48.966C19.672 48.138 19.1589 47.3951 18.5427 46.7472L19.4064 45.4119C18.912 44.9284 18.3633 44.5073 17.7849 44.1332C17.2064 43.7591 16.5974 43.4314 15.9537 43.1788L15.0901 44.5141C14.2464 44.2178 13.3584 44.0546 12.4399 44.0311L12.1064 42.4761C11.4285 42.4834 10.7405 42.5555 10.0522 42.7032ZM11.1303 47.7293C13.9047 47.1341 16.6393 48.9028 17.2344 51.6772C17.8296 54.4516 16.0609 57.1863 13.2865 57.7814C10.5121 58.3765 7.7774 56.6078 7.18229 53.8334C6.58717 51.059 8.35587 48.3244 11.1303 47.7293Z" fill="#13594E" />
    <path d="M50.0832 55.8816C49.3984 56.0449 48.7465 56.2763 48.1316 56.5618L48.5006 58.1087C47.6819 58.5257 46.9509 59.0556 46.3172 59.6865L44.9625 58.8536C44.4905 59.3589 44.0821 59.9171 43.7213 60.5039C43.3605 61.0908 43.0468 61.7072 42.809 62.3565L44.1637 63.1893C43.8868 64.0395 43.7439 64.931 43.7414 65.8498L42.1945 66.2188C42.2173 66.8964 42.3051 67.5825 42.4685 68.2673C42.6318 68.9521 42.8632 69.604 43.1487 70.2189L44.6956 69.8499C45.1126 70.6686 45.6425 71.3996 46.2734 72.0333L45.4405 73.388C45.9458 73.86 46.504 74.2684 47.0908 74.6292C47.6777 74.99 48.2941 75.3037 48.9434 75.5415L49.7762 74.1868C50.6264 74.4637 51.5179 74.6066 52.4367 74.6091L52.8057 76.156C53.4833 76.1332 54.1694 76.0454 54.8542 75.882C55.539 75.7187 56.1909 75.4873 56.8058 75.2018L56.4368 73.6549C57.2555 73.2379 57.9865 72.7079 58.6202 72.0771L59.9749 72.91C60.4469 72.4047 60.8553 71.8465 61.2161 71.2597C61.5769 70.6728 61.8906 70.0564 62.1284 69.4071L60.7737 68.5743C61.0506 67.724 61.1935 66.8325 61.196 65.9138L62.7429 65.5448C62.7201 64.8672 62.6323 64.1811 62.4689 63.4963C62.3056 62.8115 62.0742 62.1596 61.7887 61.5447L60.2418 61.9137C59.8248 61.095 59.2948 60.364 58.664 59.7303L59.4969 58.3756C58.9916 57.9036 58.4334 57.4951 57.8466 57.1344C57.2597 56.7736 56.6433 56.4599 55.994 56.2221L55.1612 57.5768C54.311 57.2999 53.4194 57.157 52.5007 57.1545L52.1317 55.6076C51.4541 55.6304 50.768 55.7182 50.0832 55.8816V55.8816ZM51.2759 60.8817C54.036 60.2233 56.8104 61.929 57.4688 64.689C58.1272 67.4491 56.4215 70.2235 53.6615 70.8819C50.9014 71.5403 48.127 69.8346 47.4686 67.0745C46.8102 64.3145 48.5159 61.5401 51.2759 60.8817Z" stroke="#13594E" stroke-width="1.25" stroke-linecap="round" stroke-linejoin="round" />
    <path d="M55.5783 78.7419C55.249 78.8205 54.9355 78.9318 54.6398 79.0691L54.8172 79.813C54.4235 80.0135 54.0719 80.2684 53.7672 80.5718L53.1157 80.1712C52.8887 80.4142 52.6923 80.6827 52.5188 80.9649C52.3453 81.2471 52.1944 81.5435 52.08 81.8558L52.7315 82.2563C52.5984 82.6652 52.5297 83.094 52.5285 83.5358L51.7845 83.7133C51.7955 84.0391 51.8377 84.3691 51.9163 84.6984C51.9948 85.0278 52.1061 85.3413 52.2434 85.637L52.9874 85.4595C53.1879 85.8532 53.4427 86.2048 53.7461 86.5095L53.3456 87.161C53.5886 87.388 53.857 87.5845 54.1392 87.758C54.4215 87.9315 54.7179 88.0823 55.0302 88.1967L55.4307 87.5452C55.8396 87.6784 56.2683 87.7471 56.7102 87.7483L56.8876 88.4922C57.2135 88.4812 57.5434 88.439 57.8728 88.3605C58.2021 88.2819 58.5156 88.1706 58.8113 88.0333L58.6339 87.2894C59.0276 87.0889 59.3791 86.834 59.6839 86.5306L60.3354 86.9312C60.5624 86.6882 60.7588 86.4197 60.9323 86.1375C61.1058 85.8553 61.2567 85.5588 61.3711 85.2466L60.7196 84.846C60.8527 84.4372 60.9214 84.0084 60.9226 83.5666L61.6666 83.3891C61.6556 83.0633 61.6134 82.7333 61.5348 82.404C61.4563 82.0746 61.345 81.7611 61.2077 81.4654L60.4637 81.6429C60.2632 81.2491 60.0084 80.8976 59.705 80.5928L60.1055 79.9414C59.8625 79.7143 59.5941 79.5179 59.3119 79.3444C59.0296 79.1709 58.7332 79.02 58.4209 78.9057L58.0204 79.5572C57.6115 79.424 57.1828 79.3553 56.7409 79.3541L56.5635 78.6102C56.2376 78.6211 55.9076 78.6634 55.5783 78.7419V78.7419ZM56.1519 81.1466C57.4793 80.8299 58.8135 81.6502 59.1302 82.9776C59.4468 84.3049 58.6265 85.6392 57.2992 85.9558C55.9718 86.2725 54.6376 85.4522 54.3209 84.1248C54.0043 82.7975 54.8246 81.4632 56.1519 81.1466Z" stroke="#24A793" stroke-width="0.75" stroke-linecap="round" stroke-linejoin="round" />
    <path d="M93.4654 76.6482L96.8864 68.6966C100.071 61.2948 109.082 58.4419 115.946 62.662C122.822 66.8894 124.335 76.2399 119.142 82.4198L113.573 89.0472C109.768 93.5763 103.219 94.6357 98.1797 91.5374C93.1299 88.4328 91.1227 82.0934 93.4654 76.6482Z" stroke="#13594E" stroke-width="1.25" />
    <path d="M95.5637 72.5528L96.9272 69.1508C99.9222 61.6777 108.925 58.7022 115.784 62.9187C122.656 67.1438 124.054 76.5463 118.708 82.5879L116.279 85.3328C112.303 89.8268 105.672 90.8127 100.56 87.6699C95.4358 84.5196 93.3261 78.1362 95.5637 72.5528Z" fill="#13594E" />
    <circle cx="52.4602" cy="65.8088" r="2.33982" transform="rotate(-13.417 52.4602 65.8088)" stroke="#13594E" stroke-width="0.5" />
    <circle cx="52.4602" cy="65.8087" r="3.43854" transform="rotate(-13.417 52.4602 65.8087)" stroke="#13594E" stroke-width="0.5" />
    <path d="M48.767 49.9888L58.3091 89.9897" stroke="#13594E" stroke-width="0.5" stroke-linecap="round" stroke-dasharray="3 3" />
    <path d="M65.9534 44.9209L72.7276 73.3185" stroke="#13594E" stroke-width="0.5" stroke-linecap="round" stroke-dasharray="3 3" />
    <path d="M76.3604 43.2075L84.0815 75.5747" stroke="#13594E" stroke-width="0.5" stroke-linecap="round" stroke-dasharray="3 3" />
    <path d="M87.6642 43.9375L93.8192 69.7396" stroke="#13594E" stroke-width="0.5" stroke-linecap="round" stroke-dasharray="3 3" />
    <path d="M47.0446 86.061L65.8237 81.5813" stroke="#13594E" stroke-width="0.5" stroke-linecap="round" stroke-dasharray="3 3" />
    <path d="M37.2872 69.5093L94.9984 55.7424" stroke="#13594E" stroke-width="0.5" stroke-linecap="round" stroke-dasharray="3 3" />
    <path d="M47.5181 88.0454L49.5029 87.5719" stroke="#13594E" stroke-width="0.75" stroke-linecap="round" />
    <path d="M68.9136 81.0054L82.0436 77.8732" stroke="#13594E" stroke-width="0.75" stroke-linecap="round" />
    <path d="M69.3507 82.8374L81.412 79.9602" stroke="#13594E" stroke-width="0.75" stroke-linecap="round" />
    <path d="M69.6056 83.9062L76.1706 82.3402" stroke="#13594E" stroke-width="0.75" stroke-linecap="round" />
    <path d="M47.7731 89.1143L51.8953 88.1309" stroke="#13594E" stroke-width="0.75" stroke-linecap="round" />
    <path d="M71.2925 56.4111L73.5013 52.8183" stroke="#24A793" stroke-width="0.75" stroke-linecap="round" />
    <path d="M70.1418 62.4785L78.3959 49.0527" stroke="#24A793" stroke-width="0.75" stroke-linecap="round" />
    <path d="M72.1493 63.4088L74.8304 59.0458M80.0885 50.57L77.3393 54.9671" stroke="#24A793" stroke-width="0.75" stroke-linecap="round" />
    <path d="M73.6532 65.1582L75.712 61.8095M82.4886 50.787L80.4784 54.0566" stroke="#24A793" stroke-width="0.75" stroke-linecap="round" />
    <path d="M74.4981 67.9799L77.2756 63.4621M85.1897 50.4918L82.5998 54.8081" stroke="#24A793" stroke-width="0.75" stroke-linecap="round" />
    <path d="M77.184 67.8069L79.258 64.4333M86.2884 53.0814L84.3264 56.1421" stroke="#24A793" stroke-width="0.75" stroke-linecap="round" />
    <path d="M79.6371 68.0122L81.7974 64.4551M87.4656 55.1219L85.1897 58.9674" stroke="#24A793" stroke-width="0.75" stroke-linecap="round" />
    <path d="M81.3928 69.3521L89.663 55.7496" stroke="#24A793" stroke-width="0.75" stroke-linecap="round" />
    <path d="M86.0549 65.9644L88.5643 61.8707" stroke="#24A793" stroke-width="0.75" stroke-linecap="round" />
    <path d="M77.6169 49.3342C76.9321 49.4976 76.2802 49.729 75.6653 50.0144L76.0343 51.5613C75.2156 51.9783 74.4846 52.5083 73.8509 53.1391L72.4962 52.3063C72.0242 52.8115 71.6157 53.3697 71.255 53.9565C70.8942 54.5434 70.5805 55.1598 70.3427 55.8091L71.6974 56.642C71.4205 57.4922 71.2776 58.3837 71.2751 59.3024L69.7282 59.6714C69.751 60.349 69.8388 61.0351 70.0022 61.7199C70.1655 62.4048 70.3969 63.0566 70.6824 63.6715L72.2293 63.3025C72.6463 64.1212 73.1762 64.8522 73.8071 65.4859L72.9742 66.8406C73.4795 67.3126 74.0377 67.7211 74.6245 68.0819C75.2114 68.4427 75.8278 68.7563 76.4771 68.9941L77.3099 67.6394C78.1601 67.9163 79.0516 68.0592 79.9704 68.0617L80.3394 69.6086C81.017 69.5858 81.7031 69.498 82.3879 69.3346C83.0727 69.1713 83.7246 68.9399 84.3395 68.6544L83.9705 67.1075C84.7892 66.6906 85.5202 66.1606 86.1539 65.5297L87.5086 66.3626C87.9806 65.8573 88.389 65.2992 88.7498 64.7123C89.1106 64.1255 89.4243 63.5091 89.6621 62.8598L88.3074 62.0269C88.5843 61.1767 88.7272 60.2852 88.7297 59.3664L90.2766 58.9974C90.2538 58.3198 90.166 57.6337 90.0026 56.9489C89.8393 56.2641 89.6079 55.6122 89.3224 54.9973L87.7755 55.3663C87.3585 54.5476 86.8285 53.8166 86.1977 53.1829L87.0306 51.8283C86.5253 51.3562 85.9671 50.9478 85.3803 50.587C84.7934 50.2262 84.177 49.9125 83.5277 49.6747L82.6949 51.0294C81.8446 50.7525 80.9531 50.6096 80.0344 50.6071L79.6654 49.0602C78.9878 49.0831 78.3017 49.1708 77.6169 49.3342V49.3342ZM78.8096 54.3343C81.5697 53.6759 84.3441 55.3816 85.0025 58.1417C85.6609 60.9017 83.9552 63.6761 81.1952 64.3345C78.4351 64.9929 75.6607 63.2872 75.0023 60.5272C74.3439 57.7671 76.0496 54.9927 78.8096 54.3343Z" stroke="#13594E" stroke-width="1.25" stroke-linecap="round" stroke-linejoin="round" />
    <path d="M34.2545 59.5015L57.2321 54.0202" stroke="#13594E" stroke-width="0.75" stroke-linecap="round" />
    <path d="M47.6699 77.521L61.8687 74.1339" stroke="#13594E" stroke-width="0.75" stroke-linecap="round" />
    <path d="M66.2199 73.0957L89.3502 67.578" stroke="#13594E" stroke-width="0.75" stroke-linecap="round" />
    <path d="M70.9147 50.8374L84.9608 47.4867" stroke="#13594E" stroke-width="0.75" stroke-linecap="round" />
    <path d="M71.648 94.5697C71.0202 93.8634 70.3139 92.8431 70.1569 91.7444C70.0489 90.9883 69.2413 90.4626 68.7443 90.4887" stroke="#13594E" stroke-width="1.25" stroke-linecap="round" />
    <path d="M68.8227 91.7443C68.8227 91.1688 68.8698 90.0335 67.4885 90.0963" stroke="#13594E" stroke-width="1.25" stroke-linecap="round" />
    <path d="M67.8024 91.1952C67.5932 90.5935 67.0004 89.4529 65.9331 90.018" stroke="#13594E" stroke-width="1.25" stroke-linecap="round" />
    <path d="M66.9392 91.9012C66.5991 91.692 66.1544 90.8339 65.8405 89.7038C65.5265 88.5737 63.8785 87.611 63.0937 87.2709C62.6751 87.0878 61.838 86.9884 61.838 88.0557C61.838 88.9975 64.1453 89.8137 64.2709 91.1949C64.3964 92.5762 64.3232 93.1831 64.2709 93.3139C64.1401 93.5755 63.6744 93.8946 62.8582 93.0784C62.0421 92.2622 60.9747 92.0582 60.4254 92.2152C59.9545 92.3721 59.2953 92.9058 60.4254 93.7848C61.265 94.4378 64.0197 95.6526 66.4683 98.729" stroke="#13594E" stroke-width="1.25" stroke-linecap="round" />
    <path d="M93.2861 106.783C86.8822 100.693 77.9041 95.1606 74.0442 95.1606C67.0131 95.1606 67.161 98.6037 68.1318 100.371C68.1494 100.403 68.1694 100.431 68.194 100.458C70.178 102.649 74.9443 107.511 78.4391 109.758" stroke="#13594E" stroke-width="1.25" stroke-linecap="round" />
    <path d="M7.22009 105.182C8.72689 103.047 12.6613 97.1379 14.3617 94.273C15.5262 92.311 16.3994 90.1297 16.7161 88.6467C17.3439 85.7076 19.149 80.4064 24.6425 87.705C25.942 89.4316 27.2063 91.0082 21.9482 101.211" stroke="#13594E" stroke-width="1.25" stroke-linecap="round" />
    <path d="M26.7766 86.0723C27.9251 84.6588 30.0011 82.4502 30.8404 80.9042L32.2097 78.5632C33.1373 77.0729 33.5343 75.858 33.8887 75.1992C34.0463 74.9065 34.1444 74.6841 34.3625 74.2489C34.5606 73.8539 34.7348 73.4551 34.5966 73.1279C34.4907 72.8773 34.0492 72.4388 33.1296 72.6891C32.21 72.9395 31.5829 73.7161 31.3843 74.0731C31.1854 74.3689 30.3217 75.4407 30.0852 75.676C29.5355 76.2226 26.8277 78.4892 25.139 77.1612" stroke="#13594E" stroke-width="1.25" stroke-linecap="round" />
    <path d="M24.8104 74.9662C26.2122 74.225 28.9353 72.8889 29.8839 71.9715C30.8582 71.7829 33.264 72.0982 33.0212 70.8063C32.9707 70.5372 32.1236 69.8696 30.8643 69.643C29.9582 69.48 29.3011 69.4164 28.5483 69.8209C28.1216 70.0502 27.9523 70.1317 27.4012 70.4977C26.9735 70.6861 26.7129 70.904 26.3637 71.1441C26.0049 71.3907 25.4852 71.7828 24.7583 72.4687" stroke="#13594E" stroke-width="1.25" stroke-linecap="round" />
    <path d="M27.4011 70.4977C27.1725 70.3733 26.1845 70.3813 25.0197 70.9582C23.7474 71.5884 23.53 71.827 23.0373 72.1521C22.5446 72.4772 21.5592 73.1273 21.1735 73.441C20.4909 73.996 19.8689 74.6215 19.6234 74.937C19.191 75.6047 19.432 76.1099 20.0818 77.3531" stroke="#13594E" stroke-width="1.25" stroke-linecap="round" />
    <path d="M20.4715 79.6614C20.4715 80.4891 20.2835 82.4501 19.7092 84.0844" stroke="#13594E" stroke-width="1.25" stroke-linecap="round" />
    <path d="M31.8624 73.4416L20.7804 79.4966C19.4414 80.0204 18.5101 78.1851 19.9149 77.5655L24.8027 74.9596M33.404 72.5783L35.4534 71.4702L34.4828 69.9183L33.0955 70.6191" stroke="#13594E" stroke-width="1.25" stroke-linecap="round" />
    <path d="M35.7299 71.3199L36.8854 69.6099" stroke="#13594E" stroke-width="1.25" stroke-linecap="round" />
    <path d="M34.7581 69.774L36.8854 69.6099" stroke="#13594E" stroke-width="1.25" stroke-linecap="round" />
    <path d="M40.046 37.0697C40.2727 39.4341 36.9146 39.8916 36.7697 37.1859L36.441 15.9177L36.328 10.3851C36.3223 10.105 36.5477 9.87486 36.8279 9.87486L39.4568 9.87486M40.046 37.0697L39.6588 15.9179L39.4568 9.87486M40.046 37.0697L44.1568 37.0697C44.4424 37.0697 44.6699 36.8309 44.6562 36.5456L43.6612 15.9179L43.4029 10.3517C43.3905 10.0848 43.1706 9.87486 42.9034 9.87486L39.4568 9.87486" stroke="#13594E" stroke-width="1.25" stroke-linecap="round" />
    <rect x="44.096" y="18.5144" width="35.3215" height="21.823" rx="1.875" transform="rotate(-30 44.096 18.5144)" stroke="#13594E" stroke-width="1.25" />
    <ellipse cx="48.456" cy="19.6252" rx="0.863275" ry="0.941754" transform="rotate(-30 48.456 19.6252)" fill="#13594E" />
    <path d="M76.7769 20.4922L81.6704 17.6669M79.2677 20.8665L82.4552 19.0262" stroke="#13594E" stroke-width="1.25" stroke-linecap="round" />
    <path d="M54.3041 28.6328C55.3178 27.9176 58.1745 27.1017 61.7287 29.3017C61.9045 29.4105 62.1363 29.2797 62.1265 29.0733C61.9196 24.755 62.1984 20.2584 70.8612 20.3612C71.1204 20.3642 71.2439 19.991 71.0392 19.8319C68.6684 17.9876 65.9758 14.0542 69.3644 9.19323C69.5003 8.99835 69.324 8.72588 69.0932 8.78217L68.3515 8.96308C68.0909 9.02663 67.9467 8.71747 68.1717 8.57156C69.4383 7.75013 71.0128 7.02836 70.8342 8.09994C70.6015 9.49669 70.7554 10.2059 71.5161 11.0847" stroke="#13594E" stroke-width="1.25" stroke-linecap="round" />
</svg>