 <svg width="200" height="150" viewBox="0 0 106 112" fill="none" xmlns="http://www.w3.org/2000/svg">
    <path d="M6.22806 90.0768C7.29887 87.0534 6.84648 84.3716 6.22805 80.7076C5.45501 76.1275 4.16661 65.844 10.6945 59.2764C15.9168 54.0223 21.8606 51.3261 24.1797 50.6348" stroke="#13594E" stroke-width="1.25" stroke-linecap="round" />
    <path d="M19.3926 89.9507C19.766 88.6425 23.4374 82.9542 22.9706 79.1167C22.8027 78.0249 22.9203 75.5138 25.2382 74.2036" stroke="#13594E" stroke-width="1.25" stroke-linecap="round" />
    <path d="M17.3017 64.2513C19.0654 61.3539 23.8525 57.5746 27.6318 56.9447C31.4111 56.3148 31.7453 58.8841 31.258 59.9749C30.527 61.6111 28.9362 63.4195 25.7544 66.8641C22.6024 70.2767 20.8815 76.5952 20.6809 79.6092" stroke="#13594E" stroke-width="1.25" stroke-linecap="round" />
    <path d="M79.7594 54.0549C77.3101 51.953 71.2187 48.2328 66.447 50.1677C66.0148 50.3405 65.1158 51.1525 64.9775 53.0184" stroke="#13594E" stroke-width="1.25" stroke-linecap="round" />
    <path d="M74.6211 72.1883C69.834 66.7713 67.0625 62.4881 67.6924 57.0711C68.0435 54.0519 69.7824 52.8067 71.3744 54.3143C73.4873 56.3152 75.125 58.8348 77.4254 59.8427C77.8764 60.0526 79.3075 60.4725 81.4239 60.4725" stroke="#13594E" stroke-width="1.25" stroke-linecap="round" />
    <path d="M92.2072 84.2886C91.9767 83.3671 91.4983 80.4186 91.7749 78.069C92.1207 75.132 91.8077 64.0462 86.9669 60.8501" stroke="#13594E" stroke-width="1.25" stroke-linecap="round" />
    <path d="M91.5019 55.0553L61.6862 52.9084C61.6306 52.9044 61.572 52.9103 61.5183 52.9252C56.994 54.1742 58.9265 56.6768 60.5219 57.9854C60.5972 58.0472 60.6892 58.0834 60.7861 58.0922L67.5664 58.7086" stroke="#13594E" stroke-width="1.25" stroke-linecap="round" />
    <path d="M91.376 61.1022L81.4198 60.4497" stroke="#13594E" stroke-width="1.25" stroke-linecap="round" />
    <ellipse cx="91.3254" cy="58.0674" rx="2.64551" ry="3.65333" fill="#13594E" />
    <path d="M87.9783 60.5034C86.1612 57.9711 87.5378 55.9539 88.5829 55.1538C88.6694 55.0876 88.777 55.0584 88.8857 55.0635L91.8854 55.2028C92.1608 55.2156 92.3739 55.4491 92.3617 55.7246L92.1457 60.5715C92.1329 60.8594 91.88 61.0769 91.5934 61.0465L88.3203 60.6993C88.1842 60.6849 88.0581 60.6145 87.9783 60.5034Z" fill="#13594E" />
    <path d="M56.9232 54.4948L58.3917 54.0289C58.7369 53.9194 59.0803 54.2016 59.0398 54.5614L58.9 55.804C58.8595 56.1632 58.4629 56.3622 58.1508 56.1797L56.8221 55.4031C56.4481 55.1844 56.5102 54.6259 56.9232 54.4948Z" fill="#13594E" />
    <path d="M25.1342 57.4489L23.9278 24.1751C23.9276 19.2643 24.8413 10.942 35.0447 11.0798C45.2481 11.2177 50.7864 11.1373 52.2801 11.0798" stroke="#13594E" stroke-width="1.25" stroke-linecap="round" />
    <path d="M64.0002 11.0801H81.1495C85.8893 11.1662 89.9396 13.2339 89.9396 21.16C89.9396 29.0861 89.7051 45.6557 89.3604 54.2997" stroke="#13594E" stroke-width="1.25" stroke-linecap="round" />
    <path d="M74.9991 95.3679C67.9325 95.8848 49.0341 97.262 37.6299 97.7502C32.804 97.7502 26.4096 97.1299 25.6513 88.4456L25.1342 67.6826" stroke="#13594E" stroke-width="1.25" stroke-linecap="round" />
    <circle cx="58.0675" cy="7.17286" r="3.28028" stroke="#13594E" stroke-width="1.25" />
    <path d="M52.7241 9.30518C53.3424 11.0936 52.4666 12.4004 50.4916 12.8304C49.5471 13.036 48.2248 13.0539 45.6831 13.9481C42.5061 15.0658 41.905 18.2471 41.8191 20.9985C41.7504 23.1996 43.0213 23.9218 45.2538 24.0078C51.751 23.9791 65.667 24.1797 69.3821 24.1797C73.2461 24.1797 73.808 22.7181 73.933 21.7723C74.5513 17.095 72.9027 15.2199 71.4429 14.5499C70.756 14.2347 68.7467 13.4494 66.2051 12.8304C63.6635 12.2113 63.2058 11.3687 63.4574 10.165C64.0756 7.20723 63.715 4.80554 63.4574 3.9744C63.1712 2.828 61.4996 0.638372 57.1033 1.05108C51.6079 1.56696 51.9513 7.06969 52.7241 9.30518Z" stroke="#13594E" stroke-width="1.25" stroke-linecap="round" />
    <path d="M82.8096 53.6695L83.1369 21.7974C83.1369 21.1094 82.7471 19.9053 81.1583 19.9053C79.5239 19.9053 75.8536 19.9626 74.1905 19.9053" stroke="#13594E" stroke-width="1.25" stroke-linecap="round" />
    <path d="M41.4157 19.9054H33.5016C32.6414 19.8194 30.9897 20.3182 31.265 23.0017C31.5403 25.6851 32.8708 67.295 33.5016 87.7646C33.4729 88.7967 33.9317 90.8264 35.9963 90.6888C37.5669 90.5841 62.0083 89.2077 76.6368 88.5652" stroke="#13594E" stroke-width="1.25" stroke-linecap="round" />
    <path d="M85.2032 54.0477L85.6564 22.3892C85.6564 21.4412 85.2435 20.0624 82.9035 20.4071" stroke="#13594E" stroke-width="1.25" stroke-linecap="round" />
    <path d="M31.9745 20.1484C31.1142 20.1484 29.1356 20.1484 29.2215 22.389C29.304 24.5423 30.0818 46.5926 30.3399 56.819" stroke="#13594E" stroke-width="1.25" stroke-linecap="round" />
    <path d="M30.3399 61.772L31.1142 88.6593C31.2002 89.6072 31.5443 90.9861 35.6737 90.6413" stroke="#13594E" stroke-width="1.25" stroke-linecap="round" />
    <path d="M40.3047 34.7617H56.4298" stroke="#24A793" stroke-width="1.25" stroke-linecap="round" />
    <path d="M40.4128 40.4824L75.2257 40.3101" stroke="#24A793" stroke-width="1.25" stroke-linecap="round" />
    <path d="M40.4989 46.2554L67.815 45.9969" stroke="#24A793" stroke-width="1.25" stroke-linecap="round" />
    <path d="M40.7614 55.223L54.2001 54.6148" stroke="#24A793" stroke-width="1.25" stroke-linecap="round" />
    <path d="M86.2111 54.6772C85.5812 55.853 84.1954 57.4487 85.7071 60.4722" stroke="#13594E" stroke-width="1.25" stroke-linecap="round" />
    <path d="M66.1807 68.6851C65.3408 69.6847 64.8705 72.5407 69.708 75.9673C72.1016 77.521 77.0651 82.2409 77.7706 88.6909" stroke="#13594E" stroke-width="1.25" stroke-linecap="round" />
    <path d="M64.9209 58.583C64.4708 59.427 64.2732 61.0513 65.6768 62.6074C66.3682 63.3739 67.4483 64.1239 69.0781 64.7559" stroke="#13594E" stroke-width="1.25" stroke-linecap="round" />
    <path d="M65.6768 62.6069C64.7762 63.9096 63.9551 66.5808 66.1807 68.6852C66.7571 69.2301 68.6715 70.241 69.708 70.6764" stroke="#13594E" stroke-width="1.25" stroke-linecap="round" />
    <path d="M83.1709 110.739C80.4834 104.482 76.7209 90.9357 83.1709 86.8037C91.2334 81.6386 101.689 93.3545 105.343 103.433" stroke="#13594E" stroke-width="1.25" stroke-linecap="round" />
    <path d="M1 105.824C1.62988 99.9453 6.01388 87.9464 13.4717 89.4582C20.9295 90.9699 22.962 104.449 23.0459 111" stroke="#13594E" stroke-width="1.25" stroke-linecap="round" />
</svg>